Coordinates
version=1
nRows=5
nColumns=46
inDegrees=yes

Units are S.I. units (second, meters, Newtons, ...)
Angles are in degrees.

endheader
time	pelvis_tilt	pelvis_list	pelvis_rotation	pelvis_tx	pelvis_ty	pelvis_tz	bb_angle	bb_tx	bb_ty	bb_tz	hip_flexion_r	hip_adduction_r	hip_rotation_r	knee_angle_r	knee_angle_r_beta	ankle_angle_r	subtalar_angle_r	mtp_angle_r	crank_angle_r	hip_flexion_l	hip_adduction_l	hip_rotation_l	knee_angle_l	knee_angle_l_beta	ankle_angle_l	subtalar_angle_l	mtp_angle_l	crank_angle_l	lumbar_extension	lumbar_bending	lumbar_rotation	arm_flex_r	arm_add_r	arm_rot_r	elbow_flex_r	pro_sup_r	wrist_flex_r	wrist_dev_r	arm_flex_l	arm_add_l	arm_rot_l	elbow_flex_l	pro_sup_l	wrist_flex_l	wrist_dev_l
      5.00000000	     -8.65012160	     -9.13256944	     -4.48454750	      0.10627853	      1.16938967	     -0.27513361	      0.00000000	      0.50000000	      0.00000000	      0.25000000	     88.97714433	     -6.60665535	     -2.80494015	    108.26062750	      1.88950440	      1.27137332	      6.87314191	      0.00000000	      0.00000000	     43.64022894	    -19.50864680	    -11.30285943	     49.38340022	      0.86190293	    -18.45624383	      3.98918112	      0.00000000	      0.00000000	    -63.17562598	      4.55154901	      5.74176564	     89.74491178	      0.75052760	     24.49427355	     37.39471474	     21.82365510	      0.00000000	      0.00000000	     89.74887316	     -7.60543535	     30.49908962	     33.93225934	     18.78971768	      0.00000000	      0.00000000
      5.00500000	     -8.69772410	     -8.92802641	     -4.55762925	      0.10557843	      1.17031978	     -0.27559417	      0.00000000	      0.50000000	      0.00000000	      0.25000000	     88.78458238	     -6.31423953	     -2.69390174	    107.03057082	      1.86803586	      2.11212410	      6.94130101	      0.00000000	      0.00000000	     43.99781071	    -19.41245901	    -11.06836745	     50.58492327	      0.88287346	    -21.00774235	      4.22633100	      0.00000000	      0.00000000	    -63.26848505	      4.60119259	      5.54665013	     89.74902234	      0.89897774	     24.44977386	     37.61199841	     21.81276062	      0.00000000	      0.00000000	     89.74967118	     -7.80815140	     30.43631904	     33.96855274	     18.79938380	      0.00000000	      0.00000000
      5.01000000	     -8.81821619	     -8.85656564	     -4.72229693	      0.10494743	      1.17110962	     -0.27568988	      0.00000000	      0.50000000	      0.00000000	      0.25000000	     88.43370293	     -5.91680088	     -2.74917377	    105.63064561	      1.84360256	      3.18776182	      7.22258263	      0.00000000	      0.00000000	     44.61499936	    -19.66743717	    -10.99725282	     52.05640031	      0.90855558	    -21.52748739	      2.89781562	      0.00000000	      0.00000000	    -63.30754606	      4.65082429	      5.39014136	     89.74951857	      1.23851351	     24.35872565	     37.97711857	     21.76460474	      0.00000000	      0.00000000	     89.74717918	     -8.24688071	     30.28157749	     34.15761778	     18.84094718	      0.00000000	      0.00000000
      5.01500000	     -8.88445973	     -8.71048131	     -4.86314413	      0.10428015	      1.17177016	     -0.27556279	      0.00000000	      0.50000000	      0.00000000	      0.25000000	     87.91352195	     -5.53415400	     -2.74469445	    104.14606187	      1.81769168	      4.34439339	      7.34530391	      0.00000000	      0.00000000	     45.23399391	    -19.89533830	    -10.95796092	     53.62207593	      0.93588178	    -22.17750506	      2.02441152	      0.00000000	      0.00000000	    -63.37277748	      4.62236972	      5.19650027	     89.75049695	      1.51883986	     24.26025542	     38.23685460	     21.69528962	      0.00000000	      0.00000000	     89.74649714	     -8.59663411	     30.13662754	     34.32611019	     18.87858528	      0.00000000	      0.00000000
      5.02000000	     -8.96772453	     -8.49212937	     -4.99235697	      0.10365074	      1.17241857	     -0.27538431	      0.00000000	      0.50000000	      0.00000000	      0.25000000	     87.24912933	     -5.19665017	     -2.69081963	    102.51091185	      1.78915293	      5.66699947	      7.50866292	      0.00000000	      0.00000000	     45.89523084	    -20.01934958	    -10.85909117	     55.20660494	      0.96353702	    -23.11969610	      1.38479507	      0.00000000	      0.00000000	    -63.39488497	      4.52438269	      4.94416178	     89.75144557	      1.76220493	     24.20585365	     38.46268617	     21.65237767	      0.00000000	      0.00000000	     89.74724257	     -8.88398142	     29.99529838	     34.42715504	     18.89919822	      0.00000000	      0.00000000
